<?xml version="1.0" encoding="UTF-8"?>
<!DOCTYPE svg PUBLIC "-//W3C//DTD SVG 1.1//EN" "http://www.w3.org/Graphics/SVG/1.1/DTD/svg11.dtd">
<svg xmlns="http://www.w3.org/2000/svg" version="1.1" width="512px" height="512px" style="shape-rendering:geometricPrecision; text-rendering:geometricPrecision; image-rendering:optimizeQuality; fill-rule:evenodd; clip-rule:evenodd" xmlns:xlink="http://www.w3.org/1999/xlink">
<g><path style="opacity:1" fill="#21a5d4" d="M 293.5,26.5 C 287.006,52.1405 280.673,77.8072 274.5,103.5C 260.642,100.921 247.642,103.087 235.5,110C 226.833,117.165 221.666,126.331 220,137.5C 219.333,166.5 219.333,195.5 220,224.5C 220.708,237.158 225.541,247.824 234.5,256.5C 227.597,282.523 220.931,308.523 214.5,334.5C 213.596,335.209 213.263,336.209 213.5,337.5C 142.167,337.5 70.8333,337.5 -0.5,337.5C -0.5,240.167 -0.5,142.833 -0.5,45.5C 2.93519,41.5621 6.60185,37.7288 10.5,34C 15.1249,30.9009 20.1249,28.5676 25.5,27C 114.833,26.5 204.166,26.3333 293.5,26.5 Z"/></g>
<g><path style="opacity:0.999" fill="#1190b3" d="M 293.5,26.5 C 355.834,26.3333 418.168,26.5 480.5,27C 496.268,31.2707 506.601,41.104 511.5,56.5C 511.5,149.833 511.5,243.167 511.5,336.5C 412.161,337.164 313.161,336.498 214.5,334.5C 220.931,308.523 227.597,282.523 234.5,256.5C 248.031,263.64 262.364,265.473 277.5,262C 290.333,258.5 298.5,250.333 302,237.5C 302.794,234.529 303.461,231.529 304,228.5C 304.667,197.167 304.667,165.833 304,134.5C 300.393,118.064 290.56,107.73 274.5,103.5C 280.673,77.8072 287.006,52.1405 293.5,26.5 Z"/></g>
<g><path style="opacity:1" fill="#fcfdfe" d="M 274.5,103.5 C 290.56,107.73 300.393,118.064 304,134.5C 304.667,165.833 304.667,197.167 304,228.5C 303.461,231.529 302.794,234.529 302,237.5C 298.5,250.333 290.333,258.5 277.5,262C 262.364,265.473 248.031,263.64 234.5,256.5C 225.541,247.824 220.708,237.158 220,224.5C 219.333,195.5 219.333,166.5 220,137.5C 221.666,126.331 226.833,117.165 235.5,110C 247.642,103.087 260.642,100.921 274.5,103.5 Z"/></g>
<g><path style="opacity:1" fill="#fdfdfe" d="M 352.5,142.5 C 345.254,143.464 337.92,143.797 330.5,143.5C 335.377,113.777 352.71,100.61 382.5,104C 396.482,106.308 405.982,114.142 411,127.5C 413.268,138.933 412.934,150.267 410,161.5C 406.037,170.25 399.537,176.417 390.5,180C 407.76,186.446 416.093,198.946 415.5,217.5C 416.668,245.148 403.668,260.648 376.5,264C 348.58,264.847 332.58,251.347 328.5,223.5C 335.5,223.5 342.5,223.5 349.5,223.5C 353.437,239.819 363.77,245.985 380.5,242C 386.272,239.894 390.438,236.061 393,230.5C 394.563,222.913 394.896,215.246 394,207.5C 392.335,199.837 387.835,194.67 380.5,192C 374.912,190.711 369.245,190.211 363.5,190.5C 363.5,183.5 363.5,176.5 363.5,169.5C 369.176,169.666 374.843,169.499 380.5,169C 387.398,165.723 391.232,160.223 392,152.5C 394.922,131.757 386.088,122.59 365.5,125C 358.117,128.612 353.783,134.445 352.5,142.5 Z"/></g>
<g><path style="opacity:1" fill="#fdfefe" d="M 121.5,216.5 C 120.957,216.56 120.624,216.893 120.5,217.5C 134.661,218.826 148.661,218.826 162.5,217.5C 162.5,201.5 162.5,185.5 162.5,169.5C 169.167,169.5 175.833,169.5 182.5,169.5C 182.5,185.5 182.5,201.5 182.5,217.5C 186.167,217.5 189.833,217.5 193.5,217.5C 193.5,224.5 193.5,231.5 193.5,238.5C 189.833,238.5 186.167,238.5 182.5,238.5C 182.5,246.5 182.5,254.5 182.5,262.5C 175.833,262.5 169.167,262.5 162.5,262.5C 162.5,254.5 162.5,246.5 162.5,238.5C 141.167,238.5 119.833,238.5 98.5,238.5C 98.0989,230.415 98.5989,222.415 100,214.5C 115.782,177.816 131.949,141.316 148.5,105C 155.524,104.169 162.524,104.336 169.5,105.5C 153.21,142.409 137.21,179.409 121.5,216.5 Z"/></g>
<g><path style="opacity:1" fill="#118fb2" d="M 268.5,124.5 C 276.084,126.25 280.918,130.917 283,138.5C 283.667,168.5 283.667,198.5 283,228.5C 279.707,238.239 272.874,243.239 262.5,243.5C 250.994,243.321 243.994,237.655 241.5,226.5C 243.108,223.79 244.275,220.79 245,217.5C 252.372,186.343 260.206,155.343 268.5,124.5 Z"/></g>
<g><path style="opacity:1" fill="#27a5d4" d="M 268.5,124.5 C 260.206,155.343 252.372,186.343 245,217.5C 244.275,220.79 243.108,223.79 241.5,226.5C 240.849,211.876 240.516,197.21 240.5,182.5C 240.365,167.115 240.865,151.782 242,136.5C 247.503,125.057 256.336,121.057 268.5,124.5 Z"/></g>
<g><path style="opacity:1" fill="#74bcd0" d="M 352.5,142.5 C 349.232,143.822 345.565,144.489 341.5,144.5C 337.651,144.499 333.984,144.165 330.5,143.5C 337.92,143.797 345.254,143.464 352.5,142.5 Z"/></g>
<g><path style="opacity:1" fill="#d3ebf4" d="M 121.5,216.5 C 134.99,217.496 148.656,217.829 162.5,217.5C 148.661,218.826 134.661,218.826 120.5,217.5C 120.624,216.893 120.957,216.56 121.5,216.5 Z"/></g>
<g><path style="opacity:1" fill="#1e8aaa" d="M 214.5,334.5 C 313.161,336.498 412.161,337.164 511.5,336.5C 511.5,337.167 511.5,337.833 511.5,338.5C 340.833,338.5 170.167,338.5 -0.5,338.5C -0.5,338.167 -0.5,337.833 -0.5,337.5C 70.8333,337.5 142.167,337.5 213.5,337.5C 213.263,336.209 213.596,335.209 214.5,334.5 Z"/></g>
<g><path style="opacity:1" fill="#41434a" d="M -0.5,338.5 C 170.167,338.5 340.833,338.5 511.5,338.5C 511.5,349.833 511.5,361.167 511.5,372.5C 509.72,373.99 509.054,375.99 509.5,378.5C 508.502,382.505 506.502,385.839 503.5,388.5C 501.738,389.262 500.738,390.596 500.5,392.5C 500.5,393.167 500.167,393.5 499.5,393.5C 497.973,393.427 496.973,394.094 496.5,395.5C 495.198,397.822 493.198,399.155 490.5,399.5C 486.958,400.54 483.625,401.874 480.5,403.5C 379.833,403.5 279.167,403.5 178.5,403.5C 126.481,403.811 74.4809,403.478 22.5,402.5C 21.3646,400.787 19.698,400.12 17.5,400.5C 15.847,400.34 14.5137,399.674 13.5,398.5C 12.4154,396.413 10.7488,395.08 8.5,394.5C 6.78501,392.118 4.78501,390.118 2.5,388.5C 2.44563,386.368 1.44563,385.035 -0.5,384.5C -0.5,369.167 -0.5,353.833 -0.5,338.5 Z"/></g>
<g><path style="opacity:0.886" fill="#9bb9c3" d="M 511.5,372.5 C 511.5,373.5 511.5,374.5 511.5,375.5C 510.833,376.5 510.167,377.5 509.5,378.5C 509.054,375.99 509.72,373.99 511.5,372.5 Z"/></g>
<g><path style="opacity:1" fill="#7f949e" d="M -0.5,385.5 C -0.5,385.167 -0.5,384.833 -0.5,384.5C 1.44563,385.035 2.44563,386.368 2.5,388.5C 1.27187,387.694 0.271873,386.694 -0.5,385.5 Z"/></g>
<g><path style="opacity:0.835" fill="#89a1ad" d="M 2.5,388.5 C 4.78501,390.118 6.78501,392.118 8.5,394.5C 5.52221,393.522 3.52221,391.522 2.5,388.5 Z"/></g>
<g><path style="opacity:0.067" fill="#a3c3cd" d="M 503.5,388.5 C 503.262,390.404 502.262,391.738 500.5,392.5C 500.738,390.596 501.738,389.262 503.5,388.5 Z"/></g>
<g><path style="opacity:1" fill="#8297a1" d="M 8.5,394.5 C 10.7488,395.08 12.4154,396.413 13.5,398.5C 11.2512,397.92 9.58457,396.587 8.5,394.5 Z"/></g>
<g><path style="opacity:0.039" fill="#a4c4ce" d="M 499.5,393.5 C 499.027,394.906 498.027,395.573 496.5,395.5C 496.973,394.094 497.973,393.427 499.5,393.5 Z"/></g>
<g><path style="opacity:1" fill="#7b8c96" d="M 17.5,400.5 C 19.698,400.12 21.3646,400.787 22.5,402.5C 20.4471,402.598 18.7804,401.931 17.5,400.5 Z"/></g>
<g><path style="opacity:0.169" fill="#a8c3cc" d="M 490.5,399.5 C 487.808,402.181 484.475,403.514 480.5,403.5C 483.625,401.874 486.958,400.54 490.5,399.5 Z"/></g>
<g><path style="opacity:0.953" fill="#a7bcc6" d="M 22.5,402.5 C 74.4809,403.478 126.481,403.811 178.5,403.5C 178.5,404.167 178.5,404.833 178.5,405.5C 178.167,405.5 177.833,405.5 177.5,405.5C 129.832,405.667 82.1655,405.5 34.5,405C 30.2036,404.924 26.2036,404.091 22.5,402.5 Z"/></g>
<g><path style="opacity:1" fill="#446d7f" d="M 178.5,403.5 C 279.167,403.5 379.833,403.5 480.5,403.5C 478.052,404.473 475.385,404.806 472.5,404.5C 423.997,404.168 375.664,404.501 327.5,405.5C 277.833,404.167 228.167,404.167 178.5,405.5C 178.5,404.833 178.5,404.167 178.5,403.5 Z"/></g>
<g><path style="opacity:0.118" fill="#d2e7ed" d="M 472.5,404.5 C 424.668,405.333 376.668,405.833 328.5,406C 329.337,407.011 329.67,408.178 329.5,409.5C 328.326,408.486 327.66,407.153 327.5,405.5C 375.664,404.501 423.997,404.168 472.5,404.5 Z"/></g>
<g><path style="opacity:1" fill="#2b2e35" d="M 327.5,405.5 C 327.66,407.153 328.326,408.486 329.5,409.5C 331.072,412.215 332.072,415.215 332.5,418.5C 333.065,422.537 334.399,426.203 336.5,429.5C 337.404,430.209 337.737,431.209 337.5,432.5C 338.297,436.223 339.297,439.89 340.5,443.5C 282.4,443.171 224.067,443.504 165.5,444.5C 166.5,440.5 167.5,436.5 168.5,432.5C 168.263,431.209 168.596,430.209 169.5,429.5C 171.601,426.203 172.935,422.537 173.5,418.5C 173.595,416.214 174.262,414.214 175.5,412.5C 177.241,410.605 178.241,408.272 178.5,405.5C 228.167,404.167 277.833,404.167 327.5,405.5 Z"/></g>
<g><path style="opacity:1" fill="#818286" d="M 177.5,405.5 C 177.833,405.5 178.167,405.5 178.5,405.5C 178.241,408.272 177.241,410.605 175.5,412.5C 175.767,410.035 176.434,407.701 177.5,405.5 Z"/></g>
<g><path style="opacity:0.235" fill="#a6a6a9" d="M 332.5,418.5 C 334.601,421.797 335.935,425.463 336.5,429.5C 334.399,426.203 333.065,422.537 332.5,418.5 Z"/></g>
<g><path style="opacity:0.271" fill="#9fa0a3" d="M 173.5,418.5 C 172.935,422.537 171.601,426.203 169.5,429.5C 170.065,425.463 171.399,421.797 173.5,418.5 Z"/></g>
<g><path style="opacity:0.341" fill="#a1a2a5" d="M 337.5,432.5 C 339.601,435.797 340.935,439.463 341.5,443.5C 341.167,443.5 340.833,443.5 340.5,443.5C 339.297,439.89 338.297,436.223 337.5,432.5 Z"/></g>
<g><path style="opacity:1" fill="#42454c" d="M 340.5,443.5 C 340.833,443.5 341.167,443.5 341.5,443.5C 341.945,446.28 341.945,448.947 341.5,451.5C 342.854,452.854 344.188,454.188 345.5,455.5C 345.402,457.553 346.069,459.22 347.5,460.5C 347.054,463.01 347.72,465.01 349.5,466.5C 350.404,467.209 350.737,468.209 350.5,469.5C 350.402,471.553 351.069,473.22 352.5,474.5C 353.404,475.209 353.737,476.209 353.5,477.5C 375.169,477.333 396.836,477.5 418.5,478C 419.416,478.278 420.082,478.778 420.5,479.5C 308.833,478.17 197.167,478.17 85.5,479.5C 85.9175,478.778 86.5842,478.278 87.5,478C 109.164,477.5 130.831,477.333 152.5,477.5C 154.397,475.302 155.397,472.636 155.5,469.5C 156.309,468.531 157.309,467.698 158.5,467C 157.663,465.989 157.33,464.822 157.5,463.5C 159.397,461.302 160.397,458.636 160.5,455.5C 160.263,454.209 160.596,453.209 161.5,452.5C 163.388,450.206 164.722,447.539 165.5,444.5C 224.067,443.504 282.4,443.171 340.5,443.5 Z"/></g>
<g><path style="opacity:1" fill="#808186" d="M 168.5,432.5 C 167.5,436.5 166.5,440.5 165.5,444.5C 164.722,447.539 163.388,450.206 161.5,452.5C 163.064,445.469 165.398,438.802 168.5,432.5 Z"/></g>
<g><path style="opacity:1" fill="#6e6f75" d="M 341.5,443.5 C 343.405,447.216 344.739,451.216 345.5,455.5C 344.188,454.188 342.854,452.854 341.5,451.5C 341.945,448.947 341.945,446.28 341.5,443.5 Z"/></g>
<g><path style="opacity:0.259" fill="#adadb1" d="M 345.5,455.5 C 346.931,456.78 347.598,458.447 347.5,460.5C 346.069,459.22 345.402,457.553 345.5,455.5 Z"/></g>
<g><path style="opacity:1" fill="#86878c" d="M 160.5,455.5 C 160.397,458.636 159.397,461.302 157.5,463.5C 157.733,460.458 158.733,457.792 160.5,455.5 Z"/></g>
<g><path style="opacity:1" fill="#7b7c82" d="M 347.5,460.5 C 348.738,462.214 349.405,464.214 349.5,466.5C 347.72,465.01 347.054,463.01 347.5,460.5 Z"/></g>
<g><path style="opacity:1" fill="#76777d" d="M 157.5,463.5 C 157.33,464.822 157.663,465.989 158.5,467C 157.309,467.698 156.309,468.531 155.5,469.5C 155.595,467.214 156.262,465.214 157.5,463.5 Z"/></g>
<g><path style="opacity:0.278" fill="#abacaf" d="M 350.5,469.5 C 351.931,470.78 352.598,472.447 352.5,474.5C 351.069,473.22 350.402,471.553 350.5,469.5 Z"/></g>
<g><path style="opacity:1" fill="#84858a" d="M 155.5,469.5 C 155.397,472.636 154.397,475.302 152.5,477.5C 152.733,474.458 153.733,471.792 155.5,469.5 Z"/></g>
<g><path style="opacity:1" fill="#2a2d34" d="M 420.5,479.5 C 422.5,479.5 423.5,480.5 423.5,482.5C 423.5,485.167 423.5,487.833 423.5,490.5C 423.167,491.5 422.5,492.167 421.5,492.5C 309.148,493.829 196.815,493.829 84.5,492.5C 83.5,492.167 82.8333,491.5 82.5,490.5C 81.8075,486.247 82.8075,482.581 85.5,479.5C 197.167,478.17 308.833,478.17 420.5,479.5 Z"/></g>
<g><path style="opacity:0.204" fill="#a9a9ab" d="M 423.5,482.5 C 426.167,485.167 426.167,487.833 423.5,490.5C 423.5,487.833 423.5,485.167 423.5,482.5 Z"/></g>
<g><path style="opacity:1" fill="#87888c" d="M 85.5,479.5 C 82.8075,482.581 81.8075,486.247 82.5,490.5C 80.0617,487.776 79.895,484.776 82,481.5C 82.8159,480.177 83.9826,479.511 85.5,479.5 Z"/></g>
<g><path style="opacity:0.898" fill="#67686d" d="M 84.5,492.5 C 196.815,493.829 309.148,493.829 421.5,492.5C 421.082,493.222 420.416,493.722 419.5,494C 308.167,494.667 196.833,494.667 85.5,494C 84.944,493.617 84.6107,493.117 84.5,492.5 Z"/></g>
</svg>
