<?xml version="1.0" encoding="UTF-8"?>
<!DOCTYPE svg PUBLIC "-//W3C//DTD SVG 1.1//EN" "http://www.w3.org/Graphics/SVG/1.1/DTD/svg11.dtd">
<svg xmlns="http://www.w3.org/2000/svg" version="1.1" width="512px" height="512px" style="shape-rendering:geometricPrecision; text-rendering:geometricPrecision; image-rendering:optimizeQuality; fill-rule:evenodd; clip-rule:evenodd" xmlns:xlink="http://www.w3.org/1999/xlink">
<g><path style="opacity:1" fill="#21a5d4" d="M 293.5,26.5 C 287.14,52.6065 280.474,78.6065 273.5,104.5C 254.146,98.5483 237.312,102.548 223,116.5C 218.358,123.091 215.691,130.424 215,138.5C 214.333,168.167 214.333,197.833 215,227.5C 216.035,241.316 222.201,251.983 233.5,259.5C 227.028,284.549 220.694,309.549 214.5,334.5C 213.596,335.209 213.263,336.209 213.5,337.5C 142.167,337.5 70.8333,337.5 -0.5,337.5C -0.5,240.167 -0.5,142.833 -0.5,45.5C 2.93519,41.5621 6.60185,37.7288 10.5,34C 15.1249,30.9009 20.1249,28.5676 25.5,27C 114.833,26.5 204.166,26.3333 293.5,26.5 Z"/></g>
<g><path style="opacity:0.999" fill="#1090b2" d="M 293.5,26.5 C 355.834,26.3333 418.168,26.5 480.5,27C 496.268,31.2707 506.601,41.104 511.5,56.5C 511.5,149.833 511.5,243.167 511.5,336.5C 412.161,337.164 313.161,336.498 214.5,334.5C 220.694,309.549 227.028,284.549 233.5,259.5C 250.558,266.809 267.225,265.976 283.5,257C 293.622,248.588 298.788,237.755 299,224.5C 299.667,195.5 299.667,166.5 299,137.5C 296.544,121.575 288.044,110.575 273.5,104.5C 280.474,78.6065 287.14,52.6065 293.5,26.5 Z"/></g>
<g><path style="opacity:1" fill="#fcfdfe" d="M 273.5,104.5 C 288.044,110.575 296.544,121.575 299,137.5C 299.667,166.5 299.667,195.5 299,224.5C 298.788,237.755 293.622,248.588 283.5,257C 267.225,265.976 250.558,266.809 233.5,259.5C 222.201,251.983 216.035,241.316 215,227.5C 214.333,197.833 214.333,168.167 215,138.5C 215.691,130.424 218.358,123.091 223,116.5C 237.312,102.548 254.146,98.5483 273.5,104.5 Z"/></g>
<g><path style="opacity:1" fill="#fcfdfd" d="M 358.5,102.5 C 371.608,101.35 383.942,103.85 395.5,110C 403.023,116.542 407.857,124.709 410,134.5C 410.667,166.167 410.667,197.833 410,229.5C 407.033,250.134 395.2,261.634 374.5,264C 345.42,266.58 329.253,253.413 326,224.5C 325.333,195.833 325.333,167.167 326,138.5C 329.037,119.303 339.87,107.303 358.5,102.5 Z"/></g>
<g><path style="opacity:1" fill="#fdfefe" d="M 178.5,125.5 C 160.5,125.5 142.5,125.5 124.5,125.5C 124.168,137.186 124.501,148.852 125.5,160.5C 128.383,157.891 131.717,156.058 135.5,155C 161.34,152.002 177.174,163.168 183,188.5C 183.667,200.5 183.667,212.5 183,224.5C 178.6,254.967 161.1,267.8 130.5,263C 112.797,256.805 102.797,244.305 100.5,225.5C 107.468,224.503 114.468,224.17 121.5,224.5C 122.31,232.955 126.644,238.788 134.5,242C 148.942,245.037 158.109,239.537 162,225.5C 162.667,214.5 162.667,203.5 162,192.5C 156.674,176.089 146.174,171.589 130.5,179C 127.983,181.349 125.65,183.849 123.5,186.5C 116.678,187.818 110.011,187.818 103.5,186.5C 104.498,159.672 104.831,132.672 104.5,105.5C 129.167,105.5 153.833,105.5 178.5,105.5C 178.5,112.167 178.5,118.833 178.5,125.5 Z"/></g>
<g><path style="opacity:1" fill="#ebf5fa" d="M 178.5,125.5 C 178.5,118.833 178.5,112.167 178.5,105.5C 153.833,105.5 129.167,105.5 104.5,105.5C 104.831,132.672 104.498,159.672 103.5,186.5C 103.5,159.167 103.5,131.833 103.5,104.5C 128.833,104.5 154.167,104.5 179.5,104.5C 179.825,111.687 179.491,118.687 178.5,125.5 Z"/></g>
<g><path style="opacity:1" fill="#1490b2" d="M 361.5,123.5 C 371.094,122.087 379.26,124.754 386,131.5C 387.275,133.717 388.275,136.051 389,138.5C 389.667,168.5 389.667,198.5 389,228.5C 385.758,238.221 378.924,243.221 368.5,243.5C 356.615,243.114 349.448,237.114 347,225.5C 346.333,197.167 346.333,168.833 347,140.5C 348.597,131.919 353.43,126.252 361.5,123.5 Z"/></g>
<g><path style="opacity:1" fill="#21a4d4" d="M 268.5,126.5 C 258.547,162.904 249.214,199.57 240.5,236.5C 238.163,234.035 236.663,231.035 236,227.5C 235.333,197.833 235.333,168.167 236,138.5C 239.018,128.319 245.851,123.319 256.5,123.5C 260.908,123.311 264.908,124.311 268.5,126.5 Z"/></g>
<g><path style="opacity:1" fill="#1490b2" d="M 268.5,126.5 C 273.585,129.301 276.752,133.634 278,139.5C 278.667,168.167 278.667,196.833 278,225.5C 273.894,240.647 264.061,246.147 248.5,242C 245.279,240.896 242.612,239.063 240.5,236.5C 249.214,199.57 258.547,162.904 268.5,126.5 Z"/></g>
<g><path style="opacity:1" fill="#1e8aaa" d="M 214.5,334.5 C 313.161,336.498 412.161,337.164 511.5,336.5C 511.5,337.167 511.5,337.833 511.5,338.5C 340.833,338.5 170.167,338.5 -0.5,338.5C -0.5,338.167 -0.5,337.833 -0.5,337.5C 70.8333,337.5 142.167,337.5 213.5,337.5C 213.263,336.209 213.596,335.209 214.5,334.5 Z"/></g>
<g><path style="opacity:1" fill="#41434a" d="M -0.5,338.5 C 170.167,338.5 340.833,338.5 511.5,338.5C 511.5,349.833 511.5,361.167 511.5,372.5C 509.72,373.99 509.054,375.99 509.5,378.5C 508.502,382.505 506.502,385.839 503.5,388.5C 501.738,389.262 500.738,390.596 500.5,392.5C 500.5,393.167 500.167,393.5 499.5,393.5C 497.973,393.427 496.973,394.094 496.5,395.5C 495.198,397.822 493.198,399.155 490.5,399.5C 486.958,400.54 483.625,401.874 480.5,403.5C 379.833,403.5 279.167,403.5 178.5,403.5C 126.481,403.811 74.4809,403.478 22.5,402.5C 21.3646,400.787 19.698,400.12 17.5,400.5C 15.847,400.34 14.5137,399.674 13.5,398.5C 12.4154,396.413 10.7488,395.08 8.5,394.5C 6.78501,392.118 4.78501,390.118 2.5,388.5C 2.44563,386.368 1.44563,385.035 -0.5,384.5C -0.5,369.167 -0.5,353.833 -0.5,338.5 Z"/></g>
<g><path style="opacity:0.886" fill="#9bb9c3" d="M 511.5,372.5 C 511.5,373.5 511.5,374.5 511.5,375.5C 510.833,376.5 510.167,377.5 509.5,378.5C 509.054,375.99 509.72,373.99 511.5,372.5 Z"/></g>
<g><path style="opacity:1" fill="#7f949e" d="M -0.5,385.5 C -0.5,385.167 -0.5,384.833 -0.5,384.5C 1.44563,385.035 2.44563,386.368 2.5,388.5C 1.27187,387.694 0.271873,386.694 -0.5,385.5 Z"/></g>
<g><path style="opacity:0.835" fill="#89a1ad" d="M 2.5,388.5 C 4.78501,390.118 6.78501,392.118 8.5,394.5C 5.52221,393.522 3.52221,391.522 2.5,388.5 Z"/></g>
<g><path style="opacity:0.067" fill="#a3c3cd" d="M 503.5,388.5 C 503.262,390.404 502.262,391.738 500.5,392.5C 500.738,390.596 501.738,389.262 503.5,388.5 Z"/></g>
<g><path style="opacity:1" fill="#8297a1" d="M 8.5,394.5 C 10.7488,395.08 12.4154,396.413 13.5,398.5C 11.2512,397.92 9.58457,396.587 8.5,394.5 Z"/></g>
<g><path style="opacity:0.039" fill="#a4c4ce" d="M 499.5,393.5 C 499.027,394.906 498.027,395.573 496.5,395.5C 496.973,394.094 497.973,393.427 499.5,393.5 Z"/></g>
<g><path style="opacity:1" fill="#7b8c96" d="M 17.5,400.5 C 19.698,400.12 21.3646,400.787 22.5,402.5C 20.4471,402.598 18.7804,401.931 17.5,400.5 Z"/></g>
<g><path style="opacity:0.169" fill="#a8c3cc" d="M 490.5,399.5 C 487.808,402.181 484.475,403.514 480.5,403.5C 483.625,401.874 486.958,400.54 490.5,399.5 Z"/></g>
<g><path style="opacity:0.953" fill="#a7bcc6" d="M 22.5,402.5 C 74.4809,403.478 126.481,403.811 178.5,403.5C 178.5,404.167 178.5,404.833 178.5,405.5C 178.167,405.5 177.833,405.5 177.5,405.5C 129.832,405.667 82.1655,405.5 34.5,405C 30.2036,404.924 26.2036,404.091 22.5,402.5 Z"/></g>
<g><path style="opacity:1" fill="#446d7f" d="M 178.5,403.5 C 279.167,403.5 379.833,403.5 480.5,403.5C 478.052,404.473 475.385,404.806 472.5,404.5C 423.997,404.168 375.664,404.501 327.5,405.5C 277.833,404.167 228.167,404.167 178.5,405.5C 178.5,404.833 178.5,404.167 178.5,403.5 Z"/></g>
<g><path style="opacity:0.118" fill="#d2e7ed" d="M 472.5,404.5 C 424.668,405.333 376.668,405.833 328.5,406C 329.337,407.011 329.67,408.178 329.5,409.5C 328.326,408.486 327.66,407.153 327.5,405.5C 375.664,404.501 423.997,404.168 472.5,404.5 Z"/></g>
<g><path style="opacity:1" fill="#2b2e35" d="M 327.5,405.5 C 327.66,407.153 328.326,408.486 329.5,409.5C 331.072,412.215 332.072,415.215 332.5,418.5C 333.065,422.537 334.399,426.203 336.5,429.5C 337.404,430.209 337.737,431.209 337.5,432.5C 338.297,436.223 339.297,439.89 340.5,443.5C 282.4,443.171 224.067,443.504 165.5,444.5C 166.5,440.5 167.5,436.5 168.5,432.5C 168.263,431.209 168.596,430.209 169.5,429.5C 171.601,426.203 172.935,422.537 173.5,418.5C 173.595,416.214 174.262,414.214 175.5,412.5C 177.241,410.605 178.241,408.272 178.5,405.5C 228.167,404.167 277.833,404.167 327.5,405.5 Z"/></g>
<g><path style="opacity:1" fill="#818286" d="M 177.5,405.5 C 177.833,405.5 178.167,405.5 178.5,405.5C 178.241,408.272 177.241,410.605 175.5,412.5C 175.767,410.035 176.434,407.701 177.5,405.5 Z"/></g>
<g><path style="opacity:0.235" fill="#a6a6a9" d="M 332.5,418.5 C 334.601,421.797 335.935,425.463 336.5,429.5C 334.399,426.203 333.065,422.537 332.5,418.5 Z"/></g>
<g><path style="opacity:0.271" fill="#9fa0a3" d="M 173.5,418.5 C 172.935,422.537 171.601,426.203 169.5,429.5C 170.065,425.463 171.399,421.797 173.5,418.5 Z"/></g>
<g><path style="opacity:0.341" fill="#a1a2a5" d="M 337.5,432.5 C 339.601,435.797 340.935,439.463 341.5,443.5C 341.167,443.5 340.833,443.5 340.5,443.5C 339.297,439.89 338.297,436.223 337.5,432.5 Z"/></g>
<g><path style="opacity:1" fill="#42454c" d="M 340.5,443.5 C 340.833,443.5 341.167,443.5 341.5,443.5C 341.945,446.28 341.945,448.947 341.5,451.5C 342.854,452.854 344.188,454.188 345.5,455.5C 345.402,457.553 346.069,459.22 347.5,460.5C 347.054,463.01 347.72,465.01 349.5,466.5C 350.404,467.209 350.737,468.209 350.5,469.5C 350.402,471.553 351.069,473.22 352.5,474.5C 353.404,475.209 353.737,476.209 353.5,477.5C 375.169,477.333 396.836,477.5 418.5,478C 419.416,478.278 420.082,478.778 420.5,479.5C 308.833,478.17 197.167,478.17 85.5,479.5C 85.9175,478.778 86.5842,478.278 87.5,478C 109.164,477.5 130.831,477.333 152.5,477.5C 154.397,475.302 155.397,472.636 155.5,469.5C 156.309,468.531 157.309,467.698 158.5,467C 157.663,465.989 157.33,464.822 157.5,463.5C 159.397,461.302 160.397,458.636 160.5,455.5C 160.263,454.209 160.596,453.209 161.5,452.5C 163.388,450.206 164.722,447.539 165.5,444.5C 224.067,443.504 282.4,443.171 340.5,443.5 Z"/></g>
<g><path style="opacity:1" fill="#808186" d="M 168.5,432.5 C 167.5,436.5 166.5,440.5 165.5,444.5C 164.722,447.539 163.388,450.206 161.5,452.5C 163.064,445.469 165.398,438.802 168.5,432.5 Z"/></g>
<g><path style="opacity:1" fill="#6e6f75" d="M 341.5,443.5 C 343.405,447.216 344.739,451.216 345.5,455.5C 344.188,454.188 342.854,452.854 341.5,451.5C 341.945,448.947 341.945,446.28 341.5,443.5 Z"/></g>
<g><path style="opacity:0.259" fill="#adadb1" d="M 345.5,455.5 C 346.931,456.78 347.598,458.447 347.5,460.5C 346.069,459.22 345.402,457.553 345.5,455.5 Z"/></g>
<g><path style="opacity:1" fill="#86878c" d="M 160.5,455.5 C 160.397,458.636 159.397,461.302 157.5,463.5C 157.733,460.458 158.733,457.792 160.5,455.5 Z"/></g>
<g><path style="opacity:1" fill="#7b7c82" d="M 347.5,460.5 C 348.738,462.214 349.405,464.214 349.5,466.5C 347.72,465.01 347.054,463.01 347.5,460.5 Z"/></g>
<g><path style="opacity:1" fill="#76777d" d="M 157.5,463.5 C 157.33,464.822 157.663,465.989 158.5,467C 157.309,467.698 156.309,468.531 155.5,469.5C 155.595,467.214 156.262,465.214 157.5,463.5 Z"/></g>
<g><path style="opacity:0.278" fill="#abacaf" d="M 350.5,469.5 C 351.931,470.78 352.598,472.447 352.5,474.5C 351.069,473.22 350.402,471.553 350.5,469.5 Z"/></g>
<g><path style="opacity:1" fill="#84858a" d="M 155.5,469.5 C 155.397,472.636 154.397,475.302 152.5,477.5C 152.733,474.458 153.733,471.792 155.5,469.5 Z"/></g>
<g><path style="opacity:1" fill="#2a2d34" d="M 420.5,479.5 C 422.5,479.5 423.5,480.5 423.5,482.5C 423.5,485.167 423.5,487.833 423.5,490.5C 423.167,491.5 422.5,492.167 421.5,492.5C 309.148,493.829 196.815,493.829 84.5,492.5C 83.5,492.167 82.8333,491.5 82.5,490.5C 81.8075,486.247 82.8075,482.581 85.5,479.5C 197.167,478.17 308.833,478.17 420.5,479.5 Z"/></g>
<g><path style="opacity:0.204" fill="#a9a9ab" d="M 423.5,482.5 C 426.167,485.167 426.167,487.833 423.5,490.5C 423.5,487.833 423.5,485.167 423.5,482.5 Z"/></g>
<g><path style="opacity:1" fill="#87888c" d="M 85.5,479.5 C 82.8075,482.581 81.8075,486.247 82.5,490.5C 80.0617,487.776 79.895,484.776 82,481.5C 82.8159,480.177 83.9826,479.511 85.5,479.5 Z"/></g>
<g><path style="opacity:0.898" fill="#67686d" d="M 84.5,492.5 C 196.815,493.829 309.148,493.829 421.5,492.5C 421.082,493.222 420.416,493.722 419.5,494C 308.167,494.667 196.833,494.667 85.5,494C 84.944,493.617 84.6107,493.117 84.5,492.5 Z"/></g>
</svg>
